<?xml version="1.0" encoding="iso-8859-1"?>
<!-- Uploaded to: SVG Repo, www.svgrepo.com, Generator: SVG Repo Mixer Tools -->
<svg fill="#000000" height="800px" width="800px" version="1.1" id="Layer_1" xmlns="http://www.w3.org/2000/svg" xmlns:xlink="http://www.w3.org/1999/xlink" 
	 viewBox="0 0 512 512" xml:space="preserve">
<g>
	<g>
		<circle cx="305.021" cy="430.298" r="8.17"/>
	</g>
</g>
<g>
	<g>
		<circle cx="337.702" cy="462.979" r="8.17"/>
	</g>
</g>
<g>
	<g>
		<path d="M389.447,495.66h-2.723v-51.745c0-31.769-23.779-58.07-54.468-62.088v-8.72c0-19.522-15.883-35.404-35.404-35.404H100.766
			c-19.521,0-35.404,15.882-35.404,35.404v8.72c-30.689,4.018-54.468,30.319-54.468,62.088v51.745H8.17
			c-4.512,0-8.17,3.657-8.17,8.17S3.658,512,8.17,512h381.277c4.512,0,8.17-3.657,8.17-8.17S393.959,495.66,389.447,495.66z
			 M370.383,495.66H27.234v-51.745c0-25.529,20.769-46.298,46.298-46.298h32.681c4.512,0,8.17-3.657,8.17-8.17
			c0-4.513-3.658-8.17-8.17-8.17H81.702v-8.17c0-10.511,8.553-19.064,19.064-19.064h196.085c10.511,0,19.064,8.553,19.064,19.064
			v8.17H138.894c-4.512,0-8.17,3.657-8.17,8.17c0,4.513,3.658,8.17,8.17,8.17h185.191c25.529,0,46.298,20.769,46.298,46.298V495.66z
			"/>
	</g>
</g>
<g>
	<g>
		<path d="M471.149,119.83c-12.889,0-25.01,6.157-32.67,16.34H283.234v-32.681h2.723c4.512,0,8.17-3.657,8.17-8.17
			s-3.658-8.17-8.17-8.17h-2.723V69.847c15.594-3.699,27.234-17.733,27.234-34.442C310.468,15.882,294.585,0,275.064,0H122.553
			c-19.521,0-35.404,15.882-35.404,35.404c0,16.71,11.64,30.743,27.234,34.442v17.302h-2.723c-4.512,0-8.17,3.657-8.17,8.17
			s3.658,8.17,8.17,8.17h2.723v114.383h-2.723c-4.512,0-8.17,3.657-8.17,8.17c0,4.513,3.658,8.17,8.17,8.17h2.723v17.302
			c-15.594,3.699-27.234,17.733-27.234,34.442c0,19.522,15.883,35.404,35.404,35.404h152.511c19.521,0,35.404-15.882,35.404-35.404
			c0-16.71-11.64-30.743-27.234-34.442v-17.302h2.723c4.512,0,8.17-3.657,8.17-8.17c0-4.513-3.658-8.17-8.17-8.17h-2.723v-65.362
			h159.617c2.916,0,5.611-1.555,7.071-4.077c4.378-7.565,12.511-12.263,21.227-12.263c13.516,0,24.511,10.996,24.511,24.511
			c0,13.515-10.995,24.511-24.511,24.511c-8.716,0-16.849-4.698-21.226-12.263c-1.46-2.523-4.155-4.077-7.071-4.077H307.745
			c-4.512,0-8.17,3.657-8.17,8.17s3.658,8.17,8.17,8.17h130.734c7.66,10.183,19.781,16.34,32.67,16.34
			c22.526,0,40.851-18.325,40.851-40.851S493.675,119.83,471.149,119.83z M294.128,285.957c0,10.511-8.553,19.064-19.064,19.064
			H122.553c-10.511,0-19.064-8.553-19.064-19.064s8.553-19.064,19.064-19.064h152.511
			C285.575,266.894,294.128,275.446,294.128,285.957z M266.894,103.489v114.383h-136.17V103.489H266.894z M130.723,87.149v-16.34
			h136.17v16.34H130.723z M266.894,234.213v16.34h-136.17v-16.34H266.894z M275.064,54.468H122.553
			c-10.511,0-19.064-8.553-19.064-19.064c0-10.511,8.553-19.064,19.064-19.064h152.511c10.511,0,19.064,8.553,19.064,19.064
			C294.128,45.916,285.575,54.468,275.064,54.468z"/>
	</g>
</g>
</svg>